<?xml version="1.0" encoding="utf-8"?>
<!-- Generator: Adobe Illustrator 16.0.0, SVG Export Plug-In . SVG Version: 6.00 Build 0)  -->
<!DOCTYPE svg PUBLIC "-//W3C//DTD SVG 1.1 Tiny//EN" "http://www.w3.org/Graphics/SVG/1.1/DTD/svg11-tiny.dtd">
<svg version="1.1" baseProfile="tiny" id="Layer_2" xmlns="http://www.w3.org/2000/svg" xmlns:xlink="http://www.w3.org/1999/xlink"
	 x="0px" y="0px" width="32px" height="36px" viewBox="0 0 32 36" xml:space="preserve">
<g>
	<path d="M27.993,9.941c-0.244-1.981-1.115-3.412-2.611-4.293c-0.564-0.315-1.569-0.623-3.018-0.916
		c-2.107-0.343-3.861-0.624-5.26-0.844h-2.207c-2.846,0.439-4.586,0.722-5.225,0.844C8.228,5.025,7.234,5.333,6.694,5.648
		C5.173,6.529,4.292,7.96,4.046,9.941L3.2,16.616V29.82h2.061v1.955c0,1.025,0.551,1.539,1.654,1.539
		c1.178,0,1.766-0.502,1.766-1.508V29.82h14.678v1.986c0,1.006,0.575,1.508,1.729,1.508c1.129,0,1.692-0.514,1.692-1.539V29.82H28.8
		V16.616L27.993,9.941z M10.706,6.021H21.3c0.562,0,0.846,0.282,0.846,0.848c0,0.538-0.282,0.809-0.846,0.809H10.706
		c-0.539,0-0.81-0.271-0.81-0.809C9.896,6.304,10.167,6.021,10.706,6.021z M8.167,25.59c-0.367,0.369-0.809,0.553-1.324,0.553
		c-0.514,0-0.957-0.184-1.323-0.553c-0.368-0.367-0.552-0.809-0.552-1.324c0-0.515,0.184-0.955,0.552-1.324
		c0.366-0.365,0.81-0.551,1.323-0.551c0.517,0,0.957,0.186,1.324,0.551c0.369,0.369,0.553,0.811,0.553,1.324
		C8.72,24.781,8.536,25.223,8.167,25.59z M26.485,25.59c-0.367,0.369-0.811,0.553-1.324,0.553c-0.516,0-0.957-0.184-1.324-0.553
		c-0.367-0.367-0.551-0.809-0.551-1.324c0-0.515,0.184-0.955,0.551-1.324c0.367-0.365,0.81-0.551,1.324-0.551
		c0.516,0,0.957,0.186,1.324,0.551c0.368,0.369,0.551,0.811,0.551,1.324C27.036,24.781,26.854,25.223,26.485,25.59z M24.837,18.564
		H7.167c-1.468,0-2.199-0.38-2.199-1.141c0-0.172,0.023-0.454,0.072-0.846c0.221-2.108,0.379-3.777,0.477-5.003
		c0.098-1.128,0.439-1.853,1.027-2.17c0.315-0.171,0.953-0.258,1.904-0.258h15.105c0.951,0,1.574,0.087,1.867,0.258
		c0.612,0.317,0.968,1.042,1.064,2.17c0.27,2.919,0.428,4.585,0.477,5.003c0.049,0.417,0.072,0.688,0.072,0.81
		C27.036,18.173,26.304,18.564,24.837,18.564z"/>
</g>
</svg>
