<?xml version="1.0" encoding="utf-8"?>
<!-- Generator: Adobe Illustrator 16.0.0, SVG Export Plug-In . SVG Version: 6.00 Build 0)  -->
<!DOCTYPE svg PUBLIC "-//W3C//DTD SVG 1.1//EN" "http://www.w3.org/Graphics/SVG/1.1/DTD/svg11.dtd">
<svg version="1.1" id="Layer_12" xmlns="http://www.w3.org/2000/svg" xmlns:xlink="http://www.w3.org/1999/xlink" x="0px" y="0px"
	 width="30px" height="30px" viewBox="0 0 30 30" enable-background="new 0 0 30 30" xml:space="preserve">
<path fill="#3F729B" d="M23.913,3.006H6.086c-1.698,0-3.083,1.385-3.083,3.083V13v10.919c0,1.69,1.385,3.075,3.083,3.075h17.827
	c1.698,0,3.084-1.385,3.084-3.075V13V6.089C26.997,4.391,25.611,3.006,23.913,3.006z M19.402,6.753c0-0.6,0.484-1.084,1.078-1.084
	h2.711c0.594,0,1.078,0.484,1.078,1.084v2.583c0,0.593-0.484,1.078-1.078,1.078H20.48c-0.594,0-1.078-0.485-1.078-1.078V6.753z
	 M15.021,10.286c2.663,0,4.825,2.084,4.825,4.66c0,2.585-2.162,4.669-4.825,4.669c-2.655,0-4.817-2.084-4.817-4.669
	C10.204,12.37,12.366,10.286,15.021,10.286z M24,23c0,0.521-0.479,1-1,1H7c-0.521,0-1-0.479-1-1V13h2.001
	c-0.193,0.649-0.438,1.496-0.438,2.21c0,3.992,3.341,7.226,7.459,7.226c4.119,0,7.457-3.234,7.457-7.226
	c0-0.714-0.278-1.561-0.479-2.21h2V23z"/>
</svg>
