<?xml version="1.0" encoding="utf-8"?>
<!-- Generator: Adobe Illustrator 16.0.0, SVG Export Plug-In . SVG Version: 6.00 Build 0)  -->
<!DOCTYPE svg PUBLIC "-//W3C//DTD SVG 1.1//EN" "http://www.w3.org/Graphics/SVG/1.1/DTD/svg11.dtd">
<svg version="1.1" id="Layer_12" xmlns="http://www.w3.org/2000/svg" xmlns:xlink="http://www.w3.org/1999/xlink" x="0px" y="0px"
	 width="30px" height="30px" viewBox="0 0 30 30" enable-background="new 0 0 30 30" xml:space="preserve">
<path fill="#CE2224" d="M15.002,1.989C7.816,1.989,1.99,7.815,1.99,15c0,5.33,3.205,9.902,7.793,11.916
	c-0.041-0.91-0.008-1.998,0.22-2.99c0.255-1.055,1.674-7.088,1.674-7.088s-0.411-0.83-0.411-2.061c0-1.918,1.119-3.364,2.51-3.364
	c1.183,0,1.755,0.887,1.755,1.949c0,1.191-0.761,2.974-1.152,4.619c-0.327,1.383,0.696,2.51,2.054,2.51
	c2.463,0,4.125-3.172,4.125-6.92c0-2.846-1.918-4.979-5.416-4.979c-3.94,0-6.401,2.941-6.401,6.227c0,1.134,0.335,1.935,0.858,2.55
	c0.24,0.287,0.276,0.396,0.185,0.725c-0.061,0.24-0.204,0.814-0.269,1.039c-0.084,0.336-0.351,0.455-0.646,0.328
	c-1.819-0.736-2.662-2.723-2.662-4.961c0-3.701,3.113-8.129,9.297-8.129c4.962,0,8.239,3.589,8.239,7.449
	c0,5.106-2.838,8.918-7.025,8.918c-1.406,0-2.726-0.76-3.178-1.623c0,0-0.755,2.996-0.915,3.572
	c-0.275,1.008-0.814,2.006-1.307,2.791c1.167,0.342,2.401,0.535,3.685,0.535c7.186,0,13.008-5.826,13.008-13.011
	C28.01,7.815,22.188,1.989,15.002,1.989z"/>
</svg>
