<?xml version="1.0" encoding="utf-8"?>
<!-- Generator: Adobe Illustrator 16.0.0, SVG Export Plug-In . SVG Version: 6.00 Build 0)  -->
<!DOCTYPE svg PUBLIC "-//W3C//DTD SVG 1.1//EN" "http://www.w3.org/Graphics/SVG/1.1/DTD/svg11.dtd">
<svg version="1.1" id="Layer_12" xmlns="http://www.w3.org/2000/svg" xmlns:xlink="http://www.w3.org/1999/xlink" x="0px" y="0px"
	 width="30px" height="30px" viewBox="0 0 30 30" enable-background="new 0 0 30 30" xml:space="preserve">
<path fill="#4099FF" d="M28.98,6.232c-1.03,0.463-2.135,0.77-3.295,0.91c1.184-0.713,2.095-1.854,2.519-3.209
	c-1.104,0.664-2.333,1.146-3.64,1.408c-1.046-1.129-2.536-1.832-4.188-1.832c-3.168,0-5.738,2.598-5.738,5.799
	c0,0.455,0.052,0.898,0.149,1.324C10.021,10.393,5.793,8.08,2.963,4.57C2.469,5.428,2.187,6.424,2.187,7.486
	c0,2.016,1.013,3.791,2.55,4.832C3.8,12.287,2.916,12.027,2.14,11.59c0,0.025,0,0.051,0,0.074c0,2.811,1.979,5.158,4.603,5.689
	c-0.482,0.135-0.99,0.205-1.513,0.205c-0.37,0-0.729-0.039-1.078-0.105c0.729,2.303,2.849,3.982,5.357,4.029
	c-1.962,1.555-4.438,2.482-7.123,2.482c-0.466,0-0.921-0.027-1.368-0.08c2.537,1.646,5.552,2.605,8.792,2.605
	c10.554,0,16.324-8.842,16.324-16.508c0-0.252-0.006-0.502-0.018-0.746C27.238,8.416,28.21,7.393,28.98,6.232z"/>
</svg>
