<?xml version="1.0" encoding="utf-8"?>
<!-- Generator: Adobe Illustrator 16.0.0, SVG Export Plug-In . SVG Version: 6.00 Build 0)  -->
<!DOCTYPE svg PUBLIC "-//W3C//DTD SVG 1.1//EN" "http://www.w3.org/Graphics/SVG/1.1/DTD/svg11.dtd">
<svg version="1.1" id="Layer_12" xmlns="http://www.w3.org/2000/svg" xmlns:xlink="http://www.w3.org/1999/xlink" x="0px" y="0px"
	 width="30px" height="30px" viewBox="0 0 30 30" enable-background="new 0 0 30 30" xml:space="preserve">
<g>
	<path fill-rule="evenodd" clip-rule="evenodd" fill="#FFFFFF" d="M15.773,4.924c-0.353-0.351-0.806-0.527-1.357-0.527
		c-0.607,0-1.091,0.167-1.45,0.5c-0.359,0.334-0.539,0.781-0.539,1.344v3.763c0,0.617,0.176,1.107,0.526,1.473
		c0.35,0.365,0.817,0.548,1.401,0.548c0.606,0,1.083-0.177,1.429-0.53c0.346-0.354,0.519-0.842,0.519-1.463V6.281
		C16.302,5.728,16.126,5.275,15.773,4.924z M14.941,10.139c0,0.195-0.053,0.349-0.159,0.46s-0.251,0.167-0.432,0.167
		c-0.177,0-0.312-0.055-0.407-0.163c-0.096-0.109-0.143-0.264-0.143-0.464V6.186c0-0.158,0.051-0.287,0.152-0.385
		c0.103-0.097,0.235-0.146,0.397-0.146c0.177,0,0.319,0.049,0.428,0.146c0.108,0.098,0.163,0.227,0.163,0.385V10.139z"/>
	<polygon fill-rule="evenodd" clip-rule="evenodd" fill="#FFFFFF" points="9.242,11.84 10.746,11.84 10.746,7.757 12.495,1.999 
		10.968,1.999 10.038,5.933 9.943,5.933 8.968,1.999 7.453,1.999 9.242,7.94 	"/>
	<path fill-rule="evenodd" clip-rule="evenodd" fill="#FFFFFF" d="M18.368,11.944c0.25,0,0.508-0.077,0.774-0.231
		c0.266-0.154,0.521-0.379,0.769-0.675v0.802h1.335V4.58h-1.335v5.511c-0.126,0.158-0.264,0.289-0.413,0.391
		s-0.273,0.152-0.372,0.152c-0.126,0-0.216-0.038-0.271-0.115c-0.057-0.077-0.084-0.201-0.084-0.374V4.58h-1.335v6.067
		c0,0.433,0.078,0.757,0.234,0.973C17.826,11.837,18.06,11.944,18.368,11.944z"/>
	<path fill-rule="evenodd" clip-rule="evenodd" fill="#CD201F" d="M25.854,16.347c0-1.753-1.424-3.175-3.178-3.175
		c-2.503-0.106-5.064-0.153-7.677-0.148c-2.612-0.005-5.174,0.042-7.677,0.148c-1.755,0-3.178,1.422-3.178,3.175
		c-0.104,1.389-0.15,2.777-0.146,4.166c-0.004,1.388,0.042,2.776,0.146,4.165c0,1.753,1.423,3.176,3.178,3.176
		c2.503,0.105,5.064,0.152,7.677,0.147c2.612,0.005,5.174-0.042,7.677-0.147c1.754,0,3.178-1.423,3.178-3.176
		c0.104-1.389,0.15-2.777,0.146-4.165C26.005,19.124,25.959,17.735,25.854,16.347z M8.763,25.292H7.259v-8.413H5.704v-1.428h4.614
		v1.428H8.763V25.292z M14.109,25.292h-1.335V24.49c-0.245,0.296-0.501,0.521-0.768,0.675s-0.524,0.231-0.775,0.231
		c-0.309,0-0.541-0.108-0.697-0.324S10.3,24.532,10.3,24.1v-6.067h1.335v5.564c0,0.173,0.027,0.297,0.084,0.374
		c0.056,0.077,0.146,0.115,0.271,0.115c0.098,0,0.222-0.051,0.372-0.152c0.149-0.103,0.287-0.232,0.412-0.392v-5.51h1.335V25.292z
		 M19.248,23.787c0,0.517-0.104,0.911-0.313,1.186s-0.511,0.41-0.907,0.41c-0.261,0-0.493-0.053-0.697-0.159
		c-0.205-0.105-0.395-0.269-0.57-0.49v0.559h-1.348v-9.841h1.348v3.168c0.18-0.222,0.371-0.391,0.573-0.506s0.407-0.173,0.613-0.173
		c0.423,0,0.746,0.155,0.968,0.465c0.223,0.311,0.334,0.762,0.334,1.354V23.787z M24.183,21.832h-2.554v1.369
		c0,0.382,0.044,0.646,0.133,0.795c0.087,0.147,0.237,0.221,0.45,0.221c0.221,0,0.376-0.062,0.464-0.187s0.133-0.401,0.133-0.829
		v-0.504h1.374v0.545c0,0.744-0.168,1.305-0.502,1.681c-0.335,0.377-0.834,0.565-1.499,0.565c-0.598,0-1.068-0.2-1.411-0.599
		c-0.343-0.399-0.516-0.948-0.516-1.647v-3.258c0-0.631,0.189-1.144,0.566-1.541c0.376-0.396,0.864-0.595,1.461-0.595
		c0.611,0,1.08,0.184,1.408,0.551c0.327,0.368,0.492,0.896,0.492,1.585V21.832z"/>
	<path fill-rule="evenodd" clip-rule="evenodd" fill="#CD201F" d="M22.225,19.12c-0.212,0-0.364,0.065-0.457,0.197
		s-0.139,0.35-0.139,0.653v0.734h1.18v-0.734c0-0.304-0.047-0.521-0.139-0.653C22.576,19.186,22.429,19.12,22.225,19.12z"/>
	<path fill-rule="evenodd" clip-rule="evenodd" fill="#CD201F" d="M17.317,19.094c-0.096,0-0.189,0.024-0.282,0.071
		c-0.093,0.048-0.185,0.121-0.275,0.222v4.523c0.108,0.117,0.215,0.203,0.316,0.255s0.209,0.078,0.322,0.078
		c0.163,0,0.283-0.051,0.36-0.152c0.077-0.103,0.115-0.27,0.115-0.501v-3.748c0-0.245-0.048-0.431-0.143-0.558
		S17.498,19.094,17.317,19.094z"/>
</g>
</svg>
