<?xml version="1.0" encoding="utf-8"?>
<!-- Generator: Adobe Illustrator 16.0.0, SVG Export Plug-In . SVG Version: 6.00 Build 0)  -->
<!DOCTYPE svg PUBLIC "-//W3C//DTD SVG 1.1 Tiny//EN" "http://www.w3.org/Graphics/SVG/1.1/DTD/svg11-tiny.dtd">
<svg version="1.1" baseProfile="tiny" id="Layer_2" xmlns="http://www.w3.org/2000/svg" xmlns:xlink="http://www.w3.org/1999/xlink"
	 x="0px" y="0px" width="32px" height="36px" viewBox="0 0 32 36" xml:space="preserve">
<g>
	<path d="M10.557,13.991c-1.465,0-2.506,0.724-3.124,2.171l-1.958,4.633c-1.447,0.354-2.171,1.43-2.171,3.229v5.691h2.171V31.7
		c0,1.077,0.582,1.614,1.747,1.614c0.388,0,0.75-0.088,1.085-0.265c0.512-0.282,0.768-0.731,0.768-1.351v-2.064h13.209V31.7
		c0,0.618,0.256,1.067,0.768,1.351c0.335,0.176,0.697,0.264,1.085,0.264c1.183,0,1.773-0.537,1.773-1.613v-1.985h2.145v-5.69
		c-0.001-1.801-0.724-2.879-2.172-3.23l-1.959-4.633c-0.617-1.447-1.658-2.171-3.123-2.171H10.557z M8.386,25.744
		c-0.353,0.354-0.785,0.529-1.297,0.529c-0.512,0-0.939-0.172-1.284-0.517c-0.344-0.344-0.516-0.771-0.516-1.284
		c0-0.512,0.176-0.943,0.529-1.297c0.353-0.353,0.776-0.529,1.271-0.529s0.922,0.182,1.284,0.543
		c0.361,0.361,0.542,0.791,0.542,1.283C8.916,24.969,8.74,25.393,8.386,25.744z M7.38,20.741l1.324-3.521
		c0.211-0.564,0.458-0.957,0.741-1.178c0.281-0.221,0.776-0.331,1.481-0.331h9.503c0.706,0,1.218,0.124,1.536,0.37
		c0.246,0.178,0.477,0.557,0.688,1.139l1.351,3.521H7.38z M25.566,25.744c-0.354,0.354-0.785,0.529-1.297,0.529
		s-0.939-0.172-1.284-0.517c-0.344-0.344-0.516-0.771-0.516-1.284c0-0.512,0.176-0.943,0.529-1.297
		c0.353-0.353,0.776-0.529,1.271-0.529s0.922,0.182,1.283,0.543c0.362,0.361,0.543,0.791,0.543,1.283
		C26.095,24.969,25.918,25.393,25.566,25.744z"/>
</g>
</svg>
