<?xml version="1.0" encoding="utf-8"?>
<!-- Generator: Adobe Illustrator 16.0.0, SVG Export Plug-In . SVG Version: 6.00 Build 0)  -->
<!DOCTYPE svg PUBLIC "-//W3C//DTD SVG 1.1//EN" "http://www.w3.org/Graphics/SVG/1.1/DTD/svg11.dtd">
<svg version="1.1" id="Layer_1" xmlns="http://www.w3.org/2000/svg" xmlns:xlink="http://www.w3.org/1999/xlink" x="0px" y="0px"
	 width="27px" height="23px" viewBox="0 0 27 23" enable-background="new 0 0 27 23" xml:space="preserve">
<g>
	<g>
		<path fill="#FFFFFF" d="M22,17l5-5h-4c0-3.195-0.987-6.415-3.258-8.652C17.472,1.111,14.749,0,11.574,0
			C8.4,0,5.677,1.111,3.406,3.348C1.136,5.585,0,8.301,0,11.496c0,3.196,1.136,5.912,3.406,8.148C5.677,21.882,8.4,23,11.574,23
			c3.175,0,5.888-1.118,8.138-3.355l-1.809-1.857c-1.768,1.758-3.878,2.637-6.33,2.637c-2.491,0-4.621-0.869-6.39-2.606
			c-1.768-1.737-2.652-3.844-2.652-6.321c0-2.476,0.885-4.583,2.652-6.321c1.769-1.738,3.898-2.606,6.39-2.606
			c2.493,0,4.612,0.868,6.36,2.606S20.5,9.524,20.5,12h-4L22,17z M9.5,6v6.75L15,16l1-1.5l-4.5-2.75V6H9.5z"/>
	</g>
</g>
</svg>
