<?xml version="1.0" encoding="utf-8"?>
<!-- Generator: Adobe Illustrator 16.0.0, SVG Export Plug-In . SVG Version: 6.00 Build 0)  -->
<!DOCTYPE svg PUBLIC "-//W3C//DTD SVG 1.1//EN" "http://www.w3.org/Graphics/SVG/1.1/DTD/svg11.dtd">
<svg version="1.1" id="close" xmlns="http://www.w3.org/2000/svg" xmlns:xlink="http://www.w3.org/1999/xlink" x="0px" y="0px"
	 width="30px" height="30px" viewBox="0 0 30 30" enable-background="new 0 0 30 30" xml:space="preserve">
<path fill="#FFFFFF" d="M17.156,15l8.896-8.902c0.596-0.597,0.596-1.563,0-2.159c-0.596-0.596-1.561-0.596-2.156,0L15,12.841
	L6.104,3.939c-0.596-0.596-1.561-0.596-2.156,0c-0.596,0.596-0.596,1.562,0,2.159L12.843,15l-8.896,8.902
	c-0.596,0.597-0.596,1.563,0,2.159c0.298,0.298,0.688,0.447,1.078,0.447c0.39,0,0.78-0.149,1.078-0.447L15,17.158l8.897,8.903
	c0.298,0.298,0.688,0.447,1.078,0.447c0.39,0,0.78-0.149,1.078-0.447c0.596-0.596,0.596-1.562,0-2.159L17.156,15z"/>
</svg>
