<?xml version="1.0" encoding="utf-8"?>
<!-- Generator: Adobe Illustrator 16.0.0, SVG Export Plug-In . SVG Version: 6.00 Build 0)  -->
<!DOCTYPE svg PUBLIC "-//W3C//DTD SVG 1.1//EN" "http://www.w3.org/Graphics/SVG/1.1/DTD/svg11.dtd">
<svg version="1.1" id="o_o_o" xmlns="http://www.w3.org/2000/svg" xmlns:xlink="http://www.w3.org/1999/xlink" x="0px" y="0px"
	 width="30px" height="30px" viewBox="0 0 30 30" enable-background="new 0 0 30 30" xml:space="preserve">
<path fill-rule="evenodd" clip-rule="evenodd" fill="#FFFFFF" d="M3,12c1.657,0,3,1.344,3,3c0,1.657-1.343,3-3,3s-3-1.343-3-3
	C0,13.344,1.343,12,3,12z"/>
<path fill-rule="evenodd" clip-rule="evenodd" fill="#FFFFFF" d="M15,12c1.656,0,3,1.344,3,3c0,1.657-1.344,3-3,3
	c-1.657,0-3-1.343-3-3C12,13.344,13.343,12,15,12z"/>
<path fill-rule="evenodd" clip-rule="evenodd" fill="#FFFFFF" d="M27,12c1.657,0,3,1.344,3,3c0,1.657-1.343,3-3,3s-3-1.343-3-3
	C24,13.344,25.343,12,27,12z"/>
</svg>
