<?xml version="1.0" encoding="utf-8"?>
<!-- Generator: Adobe Illustrator 16.0.0, SVG Export Plug-In . SVG Version: 6.00 Build 0)  -->
<!DOCTYPE svg PUBLIC "-//W3C//DTD SVG 1.1//EN" "http://www.w3.org/Graphics/SVG/1.1/DTD/svg11.dtd">
<svg version="1.1" id="Layer_12" xmlns="http://www.w3.org/2000/svg" xmlns:xlink="http://www.w3.org/1999/xlink" x="0px" y="0px"
	 width="18px" height="20px" viewBox="5.5 5.5 18 20" enable-background="new 5.5 5.5 18 20" xml:space="preserve">
<path fill-rule="evenodd" clip-rule="evenodd" fill="#FFFFFF" d="M14.5,8.5c-3.866,0-7,3.134-7,7s3.134,7,7,7s7-3.134,7-7
	S18.366,8.5,14.5,8.5z M19.373,15.5c0,0.96-0.279,1.854-0.76,2.609l-6.723-6.723c0.755-0.48,1.65-0.761,2.609-0.761
	C17.188,10.626,19.373,12.812,19.373,15.5z M9.626,15.5c0-0.959,0.28-1.854,0.761-2.609l6.722,6.723
	c-0.755,0.48-1.65,0.761-2.609,0.761C11.812,20.374,9.626,18.188,9.626,15.5z"/>
</svg>
