<?xml version="1.0" encoding="utf-8"?>
<!-- Generator: Adobe Illustrator 16.0.0, SVG Export Plug-In . SVG Version: 6.00 Build 0)  -->
<!DOCTYPE svg PUBLIC "-//W3C//DTD SVG 1.1//EN" "http://www.w3.org/Graphics/SVG/1.1/DTD/svg11.dtd">
<svg version="1.1" id="frontdsk" xmlns="http://www.w3.org/2000/svg" xmlns:xlink="http://www.w3.org/1999/xlink" x="0px" y="0px"
	 width="30px" height="30px" viewBox="0 0 30 30" enable-background="new 0 0 30 30" xml:space="preserve">
<path fill="#FFFFFF" d="M28.704,17.049h-2.997v9.428c0,0.757-0.372,1.136-1.118,1.136c-0.748,0-1.12-0.368-1.12-1.104v-8.733
	c0-0.296-0.09-0.442-0.27-0.442c-0.197,0-0.298,0.146-0.298,0.442v8.733c0,0.735-0.384,1.104-1.151,1.104
	c-0.727,0-1.087-0.379-1.087-1.136v-9.428H0.671v-2.3h19.992v-4.605c0-0.189-0.074-0.346-0.221-0.472
	c-0.149-0.083-0.338,0.01-0.567,0.283c-1.094,1.367-2.238,2.649-3.437,3.847c-0.254,0.252-0.549,0.379-0.884,0.379
	c-0.568,0-0.852-0.295-0.852-0.884c0-0.293,0.116-0.577,0.347-0.852l3.973-4.414c0.589-0.588,1.42-0.883,2.492-0.883h2.932
	c1.094,0,1.892,0.21,2.396,0.63c0.589,0.504,0.884,1.346,0.884,2.523v4.446h0.978V17.049z M16.09,9.04h-1.041v0.883l-2.238,2.302
	c-0.442,0.441-0.8,0.651-1.072,0.63c-0.335,0-0.589-0.263-0.756-0.788l-0.505-1.577c-0.105-0.315-0.295-0.442-0.568-0.379
	c-0.23,0.107-0.295,0.327-0.188,0.663l1.04,3.406h-6.59l0.977-3.406c0.105-0.336,0.042-0.556-0.189-0.663
	c-0.294-0.063-0.483,0.064-0.567,0.379l-1.072,3.69H1.806l1.482-4.73C3.75,7.979,4.739,7.243,6.252,7.243h2.364
	c1.536,0,2.524,0.736,2.964,2.208l0.475,1.545l2.333-2.459V4.909h1.701V9.04z M9.438,4.846c0,0.547-0.195,1.02-0.584,1.419
	c-0.389,0.4-0.868,0.599-1.434,0.599c-0.568,0-1.046-0.199-1.435-0.599C5.595,5.866,5.401,5.393,5.401,4.846
	c0-0.568,0.194-1.052,0.583-1.451c0.389-0.399,0.867-0.599,1.435-0.599c0.566,0,1.045,0.2,1.434,0.599S9.438,4.278,9.438,4.846z
	 M25.234,4.404c0,0.567-0.199,1.051-0.6,1.452c-0.398,0.399-0.872,0.598-1.419,0.598c-0.568,0-1.049-0.199-1.449-0.598
	c-0.4-0.4-0.601-0.884-0.601-1.452c0-0.545,0.2-1.019,0.601-1.418c0.4-0.398,0.881-0.599,1.449-0.599c0.547,0,1.021,0.2,1.419,0.599
	C25.035,3.385,25.234,3.859,25.234,4.404z"/>
</svg>
