<?xml version="1.0" encoding="utf-8"?>
<!-- Generator: Adobe Illustrator 16.0.0, SVG Export Plug-In . SVG Version: 6.00 Build 0)  -->
<!DOCTYPE svg PUBLIC "-//W3C//DTD SVG 1.1//EN" "http://www.w3.org/Graphics/SVG/1.1/DTD/svg11.dtd">
<svg version="1.1" id="Layer_12" xmlns="http://www.w3.org/2000/svg" xmlns:xlink="http://www.w3.org/1999/xlink" x="0px" y="0px"
	 width="30px" height="30px" viewBox="0 0 30 30" enable-background="new 0 0 30 30" xml:space="preserve">
<g>
	<path fill="#808080" d="M15.773,4.924c-0.354-0.351-0.807-0.527-1.357-0.527c-0.607,0-1.091,0.167-1.45,0.5
		c-0.359,0.334-0.539,0.781-0.539,1.344v3.763c0,0.617,0.176,1.107,0.526,1.473c0.35,0.365,0.817,0.548,1.401,0.548
		c0.606,0,1.083-0.177,1.429-0.53c0.346-0.354,0.519-0.842,0.519-1.463V6.281C16.302,5.728,16.126,5.275,15.773,4.924z
		 M14.941,10.139c0,0.195-0.053,0.349-0.159,0.46c-0.106,0.111-0.251,0.167-0.432,0.167c-0.177,0-0.312-0.055-0.407-0.163
		c-0.096-0.109-0.143-0.264-0.143-0.464V6.186c0-0.158,0.051-0.287,0.152-0.385c0.103-0.097,0.235-0.146,0.397-0.146
		c0.177,0,0.319,0.049,0.428,0.146c0.108,0.098,0.163,0.227,0.163,0.385L14.941,10.139L14.941,10.139z"/>
	<polygon fill="#808080" points="9.242,11.84 10.746,11.84 10.746,7.757 12.495,1.999 10.968,1.999 10.038,5.933 9.943,5.933 
		8.968,1.999 7.453,1.999 9.242,7.94 	"/>
	<path fill="#808080" d="M18.368,11.944c0.25,0,0.508-0.077,0.774-0.231c0.266-0.154,0.521-0.379,0.769-0.675v0.802h1.335V4.58
		h-1.335v5.511c-0.126,0.158-0.265,0.289-0.413,0.391s-0.273,0.152-0.372,0.152c-0.126,0-0.216-0.038-0.271-0.115
		c-0.058-0.077-0.084-0.201-0.084-0.374V4.58h-1.336v6.067c0,0.433,0.078,0.757,0.234,0.973
		C17.826,11.837,18.061,11.944,18.368,11.944z"/>
	<path fill="#808080" d="M25.854,16.348c0-1.754-1.424-3.176-3.178-3.176c-2.503-0.106-5.064-0.153-7.677-0.148
		c-2.612-0.005-5.174,0.042-7.677,0.148c-1.755,0-3.178,1.422-3.178,3.176c-0.104,1.389-0.15,2.776-0.146,4.166
		C3.994,21.9,4.04,23.289,4.144,24.678c0,1.754,1.423,3.176,3.178,3.176c2.503,0.105,5.064,0.152,7.677,0.147
		c2.612,0.005,5.174-0.042,7.677-0.147c1.754,0,3.178-1.422,3.178-3.176c0.104-1.389,0.15-2.777,0.146-4.164
		C26.005,19.124,25.959,17.734,25.854,16.348z M8.763,25.292H7.259v-8.413H5.704v-1.428h4.614v1.428H8.763V25.292z M14.109,25.292
		h-1.335V24.49c-0.245,0.296-0.501,0.521-0.768,0.675c-0.267,0.153-0.524,0.231-0.775,0.231c-0.309,0-0.541-0.108-0.697-0.324
		c-0.156-0.217-0.234-0.54-0.234-0.973v-6.066h1.335v5.564c0,0.172,0.027,0.297,0.084,0.373c0.056,0.077,0.146,0.115,0.271,0.115
		c0.098,0,0.222-0.051,0.372-0.152c0.149-0.103,0.287-0.231,0.412-0.392v-5.51h1.335V25.292z M19.248,23.787
		c0,0.518-0.104,0.911-0.312,1.186c-0.209,0.275-0.512,0.41-0.908,0.41c-0.26,0-0.492-0.053-0.696-0.158
		c-0.205-0.105-0.396-0.27-0.57-0.49v0.559h-1.348v-9.841h1.348v3.168c0.181-0.222,0.371-0.392,0.573-0.506
		c0.202-0.115,0.407-0.173,0.613-0.173c0.423,0,0.746,0.154,0.968,0.465c0.224,0.311,0.334,0.762,0.334,1.354L19.248,23.787
		L19.248,23.787z M24.184,21.832h-2.555v1.369c0,0.382,0.044,0.646,0.133,0.795c0.088,0.146,0.237,0.221,0.45,0.221
		c0.222,0,0.376-0.062,0.464-0.188s0.133-0.4,0.133-0.828v-0.504h1.375v0.545c0,0.744-0.168,1.305-0.502,1.681
		c-0.336,0.377-0.834,0.565-1.5,0.565c-0.598,0-1.067-0.2-1.41-0.6c-0.344-0.398-0.517-0.947-0.517-1.646v-3.258
		c0-0.631,0.188-1.145,0.565-1.541s0.865-0.596,1.462-0.596c0.61,0,1.079,0.185,1.407,0.551c0.328,0.369,0.492,0.896,0.492,1.586
		v1.848H24.184z"/>
	<path fill="#808080" d="M22.225,19.12c-0.211,0-0.363,0.065-0.457,0.196c-0.093,0.133-0.139,0.351-0.139,0.654v0.733h1.18v-0.733
		c0-0.305-0.047-0.521-0.139-0.654C22.576,19.186,22.43,19.12,22.225,19.12z"/>
	<path fill="#808080" d="M17.316,19.094c-0.096,0-0.188,0.024-0.281,0.071c-0.094,0.048-0.186,0.121-0.275,0.222v4.523
		c0.108,0.117,0.215,0.203,0.316,0.255c0.101,0.052,0.209,0.078,0.322,0.078c0.162,0,0.283-0.052,0.359-0.152
		c0.077-0.103,0.115-0.271,0.115-0.501v-3.748c0-0.244-0.048-0.431-0.143-0.558C17.635,19.157,17.498,19.094,17.316,19.094z"/>
</g>
</svg>
