<?xml version="1.0" encoding="utf-8"?>
<!-- Generator: Adobe Illustrator 16.0.0, SVG Export Plug-In . SVG Version: 6.00 Build 0)  -->
<!DOCTYPE svg PUBLIC "-//W3C//DTD SVG 1.1//EN" "http://www.w3.org/Graphics/SVG/1.1/DTD/svg11.dtd">
<svg version="1.1" id="search" xmlns="http://www.w3.org/2000/svg" xmlns:xlink="http://www.w3.org/1999/xlink" x="0px" y="0px"
	 width="30px" height="30px" viewBox="0 0 30 30" enable-background="new 0 0 30 30" xml:space="preserve">
<path fill="#FFFFFF" d="M24.823,22.979l-3.675-3.709c1.262-1.596,2.022-3.613,2.022-5.809c0-5.145-4.146-9.331-9.243-9.331
	s-9.243,4.186-9.243,9.331c0,5.145,4.146,9.331,9.243,9.331c1.708,0,3.303-0.479,4.679-1.299l3.843,3.881
	c0.327,0.33,0.756,0.496,1.186,0.496c0.431,0,0.86-0.166,1.188-0.496C25.479,24.713,25.479,23.641,24.823,22.979z M8.041,13.461
	c0-3.277,2.641-5.943,5.887-5.943c3.247,0,5.887,2.666,5.887,5.943c0,3.276-2.641,5.942-5.887,5.942
	C10.682,19.403,8.041,16.737,8.041,13.461z"/>
</svg>
