<?xml version="1.0" encoding="utf-8"?>
<!-- Generator: Adobe Illustrator 16.0.0, SVG Export Plug-In . SVG Version: 6.00 Build 0)  -->
<!DOCTYPE svg PUBLIC "-//W3C//DTD SVG 1.1//EN" "http://www.w3.org/Graphics/SVG/1.1/DTD/svg11.dtd">
<svg version="1.1" id="Layer_2" xmlns="http://www.w3.org/2000/svg" xmlns:xlink="http://www.w3.org/1999/xlink" x="0px" y="0px"
	 width="36px" height="36px" viewBox="0 0 36 36" enable-background="new 0 0 36 36" xml:space="preserve">
<g>
	<path d="M34.912,12.991l-2.76-2.76c-0.013,0.015-0.021,0.03-0.035,0.043c-1.738,1.739-4.56,1.739-6.298,0
		c-1.74-1.74-1.74-4.561,0-6.3c0.013-0.013,0.028-0.021,0.042-0.035l-2.708-2.708c-0.443-0.444-1.169-0.444-1.612,0l-5.969,5.969
		c0.105,0.073,0.207,0.155,0.302,0.25c0.398,0.398,0.598,0.882,0.598,1.45c0,0.57-0.207,1.061-0.619,1.474
		c-0.413,0.412-0.896,0.618-1.451,0.62c-0.555,0.001-1.038-0.206-1.451-0.62c-0.096-0.096-0.178-0.196-0.252-0.299l-11.61,11.61
		c-0.444,0.443-0.444,1.169,0,1.612l2.713,2.714c1.745-1.648,4.492-1.628,6.2,0.08c1.707,1.707,1.729,4.454,0.081,6.2l2.765,2.765
		c0.443,0.444,1.169,0.444,1.612,0l11.592-11.592c-0.021-0.019-0.043-0.032-0.062-0.052c-0.413-0.412-0.62-0.903-0.619-1.473
		c0-0.569,0.2-1.054,0.598-1.451c0.397-0.398,0.889-0.599,1.472-0.599c0.585,0,1.076,0.201,1.474,0.599
		c0.02,0.02,0.033,0.042,0.052,0.062l5.948-5.948C35.356,14.161,35.356,13.434,34.912,12.991z M20.198,14.721
		c-0.413,0.412-0.896,0.619-1.451,0.619s-1.038-0.206-1.452-0.619c-0.412-0.413-0.619-0.903-0.618-1.473
		c0-0.569,0.199-1.055,0.597-1.452c0.399-0.397,0.891-0.597,1.473-0.597c0.585,0,1.076,0.2,1.474,0.597
		c0.398,0.4,0.599,0.883,0.599,1.452C20.818,13.818,20.61,14.308,20.198,14.721z M24.545,19.066c-0.413,0.412-0.896,0.62-1.45,0.62
		c-0.556,0.001-1.039-0.205-1.452-0.62c-0.414-0.412-0.621-0.903-0.618-1.473c-0.002-0.567,0.199-1.053,0.596-1.451
		c0.399-0.398,0.89-0.597,1.473-0.597c0.584,0,1.075,0.201,1.473,0.598c0.4,0.399,0.599,0.883,0.6,1.45
		C25.165,18.164,24.957,18.653,24.545,19.066z"/>
</g>
</svg>
