<?xml version="1.0" encoding="utf-8"?>
<!-- Generator: Adobe Illustrator 16.0.0, SVG Export Plug-In . SVG Version: 6.00 Build 0)  -->
<!DOCTYPE svg PUBLIC "-//W3C//DTD SVG 1.1//EN" "http://www.w3.org/Graphics/SVG/1.1/DTD/svg11.dtd">
<svg version="1.1" id="Layer_2" xmlns="http://www.w3.org/2000/svg" xmlns:xlink="http://www.w3.org/1999/xlink" x="0px" y="0px"
	 width="64px" height="36px" viewBox="0 0 64 36" enable-background="new 0 0 64 36" xml:space="preserve">
<g>
	<g>
		<path d="M59.512,9.941C59.267,7.96,58.396,6.529,56.9,5.648c-0.564-0.315-1.569-0.623-3.017-0.916
			c-2.108-0.343-3.861-0.624-5.26-0.844h-2.207c-2.845,0.439-4.586,0.722-5.224,0.844c-1.446,0.293-2.439,0.601-2.979,0.916
			c-1.521,0.881-2.403,2.312-2.649,4.293l-0.845,6.675v13.205h2.06v1.954c0,1.026,0.551,1.539,1.654,1.539
			c1.178,0,1.766-0.502,1.766-1.508v-1.985h14.678v1.985c0,1.006,0.575,1.508,1.729,1.508c1.128,0,1.692-0.513,1.692-1.539v-1.954
			h2.021V16.616L59.512,9.941z M42.224,6.021h10.594c0.563,0,0.846,0.282,0.846,0.848c0,0.538-0.282,0.809-0.846,0.809H42.224
			c-0.539,0-0.809-0.271-0.809-0.809C41.415,6.304,41.685,6.021,42.224,6.021z M39.686,25.59c-0.367,0.369-0.809,0.553-1.324,0.553
			c-0.515,0-0.957-0.184-1.324-0.553c-0.368-0.367-0.551-0.809-0.551-1.324c0-0.515,0.183-0.955,0.551-1.324
			c0.367-0.366,0.81-0.551,1.324-0.551c0.516,0,0.957,0.185,1.324,0.551c0.368,0.369,0.553,0.81,0.553,1.324
			C40.238,24.781,40.054,25.223,39.686,25.59z M58.004,25.59c-0.367,0.369-0.81,0.553-1.324,0.553c-0.516,0-0.957-0.184-1.324-0.553
			c-0.368-0.367-0.551-0.809-0.551-1.324c0-0.515,0.183-0.955,0.551-1.324c0.367-0.366,0.809-0.551,1.324-0.551
			c0.515,0,0.957,0.185,1.324,0.551c0.368,0.369,0.551,0.81,0.551,1.324C58.555,24.781,58.372,25.223,58.004,25.59z M56.355,18.564
			h-17.67c-1.467,0-2.199-0.38-2.199-1.14c0-0.172,0.024-0.454,0.073-0.846c0.22-2.108,0.378-3.777,0.476-5.003
			c0.098-1.128,0.44-1.853,1.027-2.17c0.316-0.171,0.953-0.258,1.905-0.258h15.105c0.952,0,1.575,0.087,1.868,0.258
			c0.612,0.317,0.967,1.042,1.064,2.17c0.269,2.919,0.427,4.585,0.476,5.003c0.049,0.417,0.073,0.688,0.073,0.81
			C58.555,18.173,57.822,18.564,56.355,18.564z"/>
	</g>
	<g>
		<path d="M25.883,20.795l-1.959-4.633c-0.617-1.447-1.658-2.171-3.123-2.171h-2.674v-1.853h-4.896v1.853h-2.674
			c-1.465,0-2.506,0.724-3.124,2.171l-1.958,4.633c-1.447,0.353-2.171,1.429-2.171,3.229v5.691h2.171V31.7
			c0,1.077,0.582,1.614,1.747,1.614c0.388,0,0.75-0.088,1.085-0.264c0.512-0.283,0.768-0.732,0.768-1.351v-2.064h13.209V31.7
			c0,0.618,0.256,1.067,0.768,1.351c0.335,0.176,0.697,0.264,1.085,0.264c1.183,0,1.773-0.537,1.773-1.614v-1.985h2.145v-5.691
			C28.054,22.224,27.331,21.147,25.883,20.795z M8.386,25.744c-0.353,0.354-0.785,0.529-1.297,0.529s-0.939-0.172-1.284-0.516
			c-0.344-0.344-0.516-0.771-0.516-1.284c0-0.512,0.176-0.944,0.529-1.297c0.353-0.353,0.776-0.529,1.271-0.529
			s0.922,0.181,1.284,0.542c0.361,0.362,0.542,0.791,0.542,1.284C8.916,24.969,8.74,25.392,8.386,25.744z M7.38,20.741l1.324-3.521
			c0.211-0.564,0.458-0.957,0.741-1.178c0.281-0.221,0.776-0.331,1.481-0.331h9.503c0.706,0,1.218,0.124,1.536,0.37
			c0.246,0.178,0.477,0.557,0.688,1.139l1.351,3.521H7.38z M25.566,25.744c-0.354,0.354-0.785,0.529-1.297,0.529
			s-0.939-0.172-1.284-0.516c-0.344-0.344-0.516-0.771-0.516-1.284c0-0.512,0.176-0.944,0.529-1.297
			c0.353-0.353,0.776-0.529,1.271-0.529s0.922,0.181,1.283,0.542c0.362,0.362,0.543,0.791,0.543,1.284
			C26.095,24.969,25.918,25.392,25.566,25.744z"/>
	</g>
</g>
</svg>
