<?xml version="1.0" encoding="utf-8"?>
<!-- Generator: Adobe Illustrator 16.0.0, SVG Export Plug-In . SVG Version: 6.00 Build 0)  -->
<!DOCTYPE svg PUBLIC "-//W3C//DTD SVG 1.1//EN" "http://www.w3.org/Graphics/SVG/1.1/DTD/svg11.dtd">
<svg version="1.1" id="Layer_2" xmlns="http://www.w3.org/2000/svg" xmlns:xlink="http://www.w3.org/1999/xlink" x="0px" y="0px"
	 width="36px" height="36px" viewBox="0 0 36 36" enable-background="new 0 0 36 36" xml:space="preserve">
<g>
	<circle cx="19.572" cy="5.604" r="2.919"/>
	<path d="M26.387,18.068c-0.57-0.257-4.334-2.128-4.334-2.128s-1.335-2.845-2.023-4.401c-0.65-1.466-1.117-1.847-2.042-1.847h-1.425
		c-0.747,0-1.021,0.273-1.477,0.529L11.231,13.5c-0.336,0.194-0.553,0.484-0.684,0.896L9.72,19.943
		c-0.12,0.884,0.348,1.26,0.878,1.369c0.427,0.09,1.071-0.125,1.203-0.748c0.103-0.513,0.883-5.052,0.883-5.052l2.515-1.933
		c-0.416,1.928-0.838,4.037-0.975,4.756c-0.239,1.226,0.371,2.155,0.855,2.884c0.439,0.662,6.129,9.633,6.877,10.607
		c0.752,0.975,1.437,1.46,2.479,0.878c0.877-0.49,0.729-1.608,0.244-2.437s-6.226-10.166-6.226-10.166l0.964-4.163
		c0,0,0.666,0.953,1.008,1.488c0.166,0.251,0.336,0.354,0.787,0.599c0.53,0.292,3.102,1.46,3.885,1.814
		c0.693,0.307,1.555,0.428,1.898-0.188C27.346,19.043,26.904,18.307,26.387,18.068z"/>
	<path d="M12.519,25.941c0,0-2.429,3.514-3.102,4.494c-0.507,0.741-0.89,1.643-0.023,2.297c0.975,0.736,1.756-0.222,2.258-0.793
		c0.461-0.519,2.343-3.146,2.874-3.813c0.354-0.45,0.547-0.826,0.702-1.202c0.097-0.251,0.479-1.289,0.724-1.962l-2.269-3.119
		L12.519,25.941z"/>
</g>
</svg>
