<?xml version="1.0" encoding="utf-8"?>
<!-- Generator: Adobe Illustrator 16.0.0, SVG Export Plug-In . SVG Version: 6.00 Build 0)  -->
<!DOCTYPE svg PUBLIC "-//W3C//DTD SVG 1.1//EN" "http://www.w3.org/Graphics/SVG/1.1/DTD/svg11.dtd">
<svg version="1.1" id="weather-cloudy" xmlns="http://www.w3.org/2000/svg" xmlns:xlink="http://www.w3.org/1999/xlink" x="0px"
	 y="0px" width="30px" height="30px" viewBox="0 0 30 30" enable-background="new 0 0 30 30" xml:space="preserve">
<g>
	<g>
		<path fill="#FFFFFF" d="M14.431,6.674c0.629,0,1.139-0.497,1.139-1.109V2.608c0-0.613-0.51-1.109-1.139-1.109
			c-0.63,0-1.14,0.496-1.14,1.109v2.957C13.291,6.177,13.801,6.674,14.431,6.674z M22.327,9.746c0.292,0,0.583-0.108,0.806-0.325
			l2.147-2.09c0.444-0.433,0.444-1.135,0-1.568c-0.446-0.434-1.166-0.434-1.61,0l-2.147,2.091c-0.445,0.433-0.445,1.135,0,1.567
			C21.744,9.638,22.036,9.746,22.327,9.746z M6.486,22.488l-2.146,2.09c-0.445,0.434-0.445,1.137,0,1.568
			c0.222,0.217,0.514,0.326,0.806,0.326s0.581-0.109,0.805-0.326l2.147-2.09c0.444-0.434,0.444-1.135,0-1.568
			C7.652,22.055,6.932,22.055,6.486,22.488z M5.318,16.283c0-0.613-0.51-1.109-1.139-1.109H1.143c-0.629,0-1.14,0.496-1.14,1.109
			c0,0.613,0.511,1.109,1.14,1.109H4.18C4.809,17.393,5.318,16.896,5.318,16.283z M6.488,9.42c0.221,0.216,0.514,0.325,0.805,0.325
			S7.876,9.637,8.099,9.42c0.444-0.433,0.444-1.135,0-1.568L5.95,5.761C5.505,5.329,4.784,5.329,4.34,5.762
			c-0.445,0.433-0.445,1.135,0,1.568L6.488,9.42z M27.086,22.609c0.136-0.432,0.206-0.883,0.206-1.34
			c0-1.746-0.997-3.266-2.466-4.055c0.178,0.111,0.387,0.178,0.613,0.178h3.039c0.629,0,1.139-0.496,1.139-1.109
			c0-0.613-0.51-1.109-1.139-1.109h-3.039c-0.628,0-1.138,0.496-1.138,1.109c0,0.381,0.197,0.717,0.497,0.916
			c-0.617-0.326-1.316-0.518-2.059-0.549c0.021-0.23,0.042-0.463,0.042-0.696c0-4.279-3.575-7.762-7.972-7.762
			s-7.974,3.482-7.974,7.762c0,2.831,1.584,5.397,4.054,6.756c-1.243,0.373-2.155,1.496-2.155,2.822
			c0,1.615,1.362,2.947,3.038,2.947h15.009c0.058,0.012,0.116,0.02,0.178,0.02c1.675,0,3.037-1.316,3.037-2.936
			C29.997,23.975,28.704,22.674,27.086,22.609z M20.351,17.232c-0.82,0.461-1.507,1.16-1.957,2.012
			c-0.674-0.674-1.665-1.082-2.824-1.082c-1.696,0-3.119,1.09-3.605,2.584c-1.734-0.977-2.85-2.789-2.85-4.792
			c0-3.058,2.556-5.544,5.696-5.544s5.693,2.486,5.693,5.544C20.504,16.387,20.452,16.818,20.351,17.232z"/>
	</g>
</g>
</svg>
